<svg xmlns="http://www.w3.org/2000/svg" xmlns:xlink="http://www.w3.org/1999/xlink" zoomAndPan="magnify" preserveAspectRatio="xMidYMid meet" version="1.0" viewBox="40.63 152 286.44 71.66"><defs><g/><clipPath id="d7f141bc61"><path d="M 240.214844 193.296875 L 251.464844 193.296875 L 251.464844 204.546875 L 240.214844 204.546875 Z M 240.214844 193.296875 " clip-rule="nonzero"/></clipPath><clipPath id="3c3651cd5b"><path d="M 40.625 152 L 106.625 152 L 106.625 223.664062 L 40.625 223.664062 Z M 40.625 152 " clip-rule="nonzero"/></clipPath></defs><g fill="#ffffff" fill-opacity="1"><g transform="translate(121.814125, 203.408259)"><g><path d="M 3.125 -31.1875 L 17.859375 -31.1875 C 21.273438 -31.1875 24.304688 -30.546875 26.953125 -29.265625 C 29.597656 -27.992188 31.644531 -26.179688 33.09375 -23.828125 C 34.550781 -21.484375 35.28125 -18.738281 35.28125 -15.59375 C 35.28125 -12.445312 34.550781 -9.695312 33.09375 -7.34375 C 31.644531 -5 29.597656 -3.1875 26.953125 -1.90625 C 24.304688 -0.632812 21.273438 0 17.859375 0 L 3.125 0 Z M 17.5 -7.03125 C 20.175781 -7.03125 22.320312 -7.785156 23.9375 -9.296875 C 25.5625 -10.816406 26.375 -12.914062 26.375 -15.59375 C 26.375 -18.257812 25.5625 -20.347656 23.9375 -21.859375 C 22.320312 -23.378906 20.175781 -24.140625 17.5 -24.140625 L 11.9375 -24.140625 L 11.9375 -7.03125 Z M 17.5 -7.03125 "/></g></g></g><g fill="#ffffff" fill-opacity="1"><g transform="translate(156.912514, 203.408259)"><g><path d="M 14.828125 0.40625 C 12.242188 0.40625 9.910156 -0.128906 7.828125 -1.203125 C 5.753906 -2.273438 4.128906 -3.757812 2.953125 -5.65625 C 1.785156 -7.5625 1.203125 -9.710938 1.203125 -12.109375 C 1.203125 -14.492188 1.785156 -16.632812 2.953125 -18.53125 C 4.128906 -20.425781 5.75 -21.898438 7.8125 -22.953125 C 9.875 -24.015625 12.210938 -24.546875 14.828125 -24.546875 C 17.441406 -24.546875 19.785156 -24.015625 21.859375 -22.953125 C 23.941406 -21.898438 25.5625 -20.429688 26.71875 -18.546875 C 27.882812 -16.660156 28.46875 -14.515625 28.46875 -12.109375 C 28.46875 -9.710938 27.882812 -7.5625 26.71875 -5.65625 C 25.5625 -3.757812 23.941406 -2.273438 21.859375 -1.203125 C 19.785156 -0.128906 17.441406 0.40625 14.828125 0.40625 Z M 14.828125 -6.328125 C 16.316406 -6.328125 17.535156 -6.835938 18.484375 -7.859375 C 19.429688 -8.890625 19.90625 -10.304688 19.90625 -12.109375 C 19.90625 -13.898438 19.429688 -15.296875 18.484375 -16.296875 C 17.535156 -17.304688 16.316406 -17.8125 14.828125 -17.8125 C 13.347656 -17.8125 12.128906 -17.304688 11.171875 -16.296875 C 10.222656 -15.296875 9.75 -13.898438 9.75 -12.109375 C 9.75 -10.304688 10.222656 -8.890625 11.171875 -7.859375 C 12.128906 -6.835938 13.347656 -6.328125 14.828125 -6.328125 Z M 14.828125 -6.328125 "/></g></g></g><g fill="#ffffff" fill-opacity="1"><g transform="translate(184.884262, 203.408259)"><g><path d="M 15.0625 0.40625 C 12.382812 0.40625 9.988281 -0.128906 7.875 -1.203125 C 5.769531 -2.273438 4.128906 -3.757812 2.953125 -5.65625 C 1.785156 -7.5625 1.203125 -9.710938 1.203125 -12.109375 C 1.203125 -14.515625 1.785156 -16.660156 2.953125 -18.546875 C 4.128906 -20.429688 5.769531 -21.898438 7.875 -22.953125 C 9.988281 -24.015625 12.382812 -24.546875 15.0625 -24.546875 C 17.789062 -24.546875 20.148438 -23.957031 22.140625 -22.78125 C 24.128906 -21.613281 25.539062 -19.988281 26.375 -17.90625 L 19.828125 -14.5625 C 18.722656 -16.726562 17.117188 -17.8125 15.015625 -17.8125 C 13.492188 -17.8125 12.234375 -17.304688 11.234375 -16.296875 C 10.242188 -15.296875 9.75 -13.898438 9.75 -12.109375 C 9.75 -10.304688 10.242188 -8.890625 11.234375 -7.859375 C 12.234375 -6.835938 13.492188 -6.328125 15.015625 -6.328125 C 17.117188 -6.328125 18.722656 -7.410156 19.828125 -9.578125 L 26.375 -6.234375 C 25.539062 -4.160156 24.128906 -2.535156 22.140625 -1.359375 C 20.148438 -0.179688 17.789062 0.40625 15.0625 0.40625 Z M 15.0625 0.40625 "/></g></g></g><g fill="#ffffff" fill-opacity="1"><g transform="translate(210.049893, 203.408259)"><g><path d="M 28.109375 -24.140625 L 28.109375 0 L 20.046875 0 L 20.046875 -2.578125 C 19.148438 -1.597656 18.078125 -0.851562 16.828125 -0.34375 C 15.585938 0.15625 14.269531 0.40625 12.875 0.40625 C 9.757812 0.40625 7.269531 -0.515625 5.40625 -2.359375 C 3.550781 -4.203125 2.625 -6.960938 2.625 -10.640625 L 2.625 -24.140625 L 11.09375 -24.140625 L 11.09375 -12.03125 C 11.09375 -10.21875 11.429688 -8.894531 12.109375 -8.0625 C 12.796875 -7.226562 13.789062 -6.8125 15.09375 -6.8125 C 16.4375 -6.8125 17.53125 -7.28125 18.375 -8.21875 C 19.21875 -9.15625 19.640625 -10.585938 19.640625 -12.515625 L 19.640625 -24.140625 Z M 28.109375 -24.140625 "/></g></g></g><g fill="#ffffff" fill-opacity="1"><g transform="translate(239.179719, 203.408259)"><g><path d="M 6.28125 0.40625 C 4.851562 0.40625 3.648438 -0.0664062 2.671875 -1.015625 C 1.691406 -1.972656 1.203125 -3.179688 1.203125 -4.640625 C 1.203125 -6.117188 1.679688 -7.316406 2.640625 -8.234375 C 3.609375 -9.160156 4.820312 -9.625 6.28125 -9.625 C 7.769531 -9.625 8.988281 -9.160156 9.9375 -8.234375 C 10.882812 -7.316406 11.359375 -6.117188 11.359375 -4.640625 C 11.359375 -3.179688 10.875 -1.972656 9.90625 -1.015625 C 8.945312 -0.0664062 7.738281 0.40625 6.28125 0.40625 Z M 6.28125 0.40625 "/></g></g></g><g fill="#ffffff" fill-opacity="1"><g transform="translate(250.09207, 203.408259)"><g><path d="M 15.140625 -11.3125 L 11.84375 -7.796875 L 11.84375 0 L 3.125 0 L 3.125 -31.1875 L 11.84375 -31.1875 L 11.84375 -18.21875 L 23.921875 -31.1875 L 33.640625 -31.1875 L 20.890625 -17.375 L 34.296875 0 L 24.0625 0 Z M 15.140625 -11.3125 "/></g></g></g><g fill="#ffffff" fill-opacity="1"><g transform="translate(281.894396, 203.408259)"><g><path d="M 13 -24.546875 C 17.007812 -24.546875 20.066406 -23.628906 22.171875 -21.796875 C 24.285156 -19.972656 25.34375 -17.175781 25.34375 -13.40625 L 25.34375 0 L 17.46875 0 L 17.46875 -3.125 C 16.25 -0.769531 13.867188 0.40625 10.328125 0.40625 C 8.460938 0.40625 6.847656 0.078125 5.484375 -0.578125 C 4.117188 -1.234375 3.085938 -2.117188 2.390625 -3.234375 C 1.691406 -4.347656 1.34375 -5.613281 1.34375 -7.03125 C 1.34375 -9.320312 2.21875 -11.097656 3.96875 -12.359375 C 5.71875 -13.617188 8.421875 -14.25 12.078125 -14.25 L 16.890625 -14.25 C 16.734375 -16.8125 15.023438 -18.09375 11.765625 -18.09375 C 10.597656 -18.09375 9.421875 -17.90625 8.234375 -17.53125 C 7.046875 -17.15625 6.039062 -16.644531 5.21875 -16 L 2.359375 -21.734375 C 3.691406 -22.628906 5.316406 -23.320312 7.234375 -23.8125 C 9.148438 -24.300781 11.070312 -24.546875 13 -24.546875 Z M 12.703125 -4.9375 C 13.679688 -4.9375 14.539062 -5.175781 15.28125 -5.65625 C 16.019531 -6.132812 16.554688 -6.832031 16.890625 -7.75 L 16.890625 -9.84375 L 13.234375 -9.84375 C 10.765625 -9.84375 9.53125 -9.023438 9.53125 -7.390625 C 9.53125 -6.648438 9.8125 -6.054688 10.375 -5.609375 C 10.9375 -5.160156 11.710938 -4.9375 12.703125 -4.9375 Z M 12.703125 -4.9375 "/></g></g></g><g fill="#ffffff" fill-opacity="1"><g transform="translate(308.173567, 203.408259)"><g><path d="M 10.78125 -21.25 C 11.644531 -22.34375 12.765625 -23.164062 14.140625 -23.71875 C 15.523438 -24.269531 17.109375 -24.546875 18.890625 -24.546875 L 18.890625 -16.921875 C 18.117188 -17.015625 17.476562 -17.0625 16.96875 -17.0625 C 15.15625 -17.0625 13.738281 -16.570312 12.71875 -15.59375 C 11.695312 -14.613281 11.1875 -13.113281 11.1875 -11.09375 L 11.1875 0 L 2.71875 0 L 2.71875 -24.140625 L 10.78125 -24.140625 Z M 10.78125 -21.25 "/></g></g></g><g clip-path="url(#d7f141bc61)"><path fill="#39b54a" d="M 245.839844 193.296875 C 242.734375 193.296875 240.214844 195.8125 240.214844 198.921875 C 240.214844 202.027344 242.734375 204.546875 245.839844 204.546875 C 248.945312 204.546875 251.464844 202.027344 251.464844 198.921875 C 251.464844 195.8125 248.945312 193.296875 245.839844 193.296875 Z M 249.007812 198.050781 L 245.714844 201.34375 C 245.558594 201.5 245.34375 201.589844 245.117188 201.589844 C 244.898438 201.589844 244.683594 201.5 244.523438 201.34375 L 242.878906 199.699219 C 242.550781 199.371094 242.550781 198.839844 242.878906 198.507812 C 243.210938 198.179688 243.738281 198.179688 244.066406 198.507812 L 245.117188 199.5625 L 247.816406 196.863281 C 248.144531 196.535156 248.675781 196.535156 249.007812 196.863281 C 249.332031 197.191406 249.332031 197.722656 249.007812 198.050781 Z M 249.007812 198.050781 " fill-opacity="1" fill-rule="nonzero"/></g><path fill="#ffffff" d="M 249.007812 198.050781 L 245.714844 201.34375 C 245.558594 201.5 245.34375 201.589844 245.117188 201.589844 C 244.898438 201.589844 244.683594 201.5 244.523438 201.34375 L 242.878906 199.699219 C 242.550781 199.371094 242.550781 198.839844 242.878906 198.507812 C 243.210938 198.179688 243.738281 198.179688 244.066406 198.507812 L 245.117188 199.5625 L 247.816406 196.863281 C 248.144531 196.535156 248.675781 196.535156 249.007812 196.863281 C 249.332031 197.191406 249.332031 197.722656 249.007812 198.050781 Z M 249.007812 198.050781 " fill-opacity="1" fill-rule="nonzero"/><g clip-path="url(#3c3651cd5b)"><path fill="#39b54a" d="M 94.0625 166.40625 L 75.476562 156.171875 C 67.484375 151.789062 58.484375 151.675781 51.398438 155.871094 C 49.742188 156.851562 48.257812 158.027344 46.960938 159.375 L 82.34375 178.371094 L 86.292969 180.542969 C 89.855469 182.5 90.601562 185.367188 90.601562 187.429688 C 90.601562 190.203125 89.105469 193.984375 84.898438 196.292969 L 67.6875 205.953125 C 64.964844 207.433594 62.085938 207.578125 59.980469 206.328125 C 57.902344 205.101562 56.757812 202.59375 56.757812 199.269531 L 56.757812 182.695312 L 40.703125 174.160156 C 40.65625 174.847656 40.628906 175.542969 40.628906 176.25 L 40.628906 199.269531 C 40.628906 208.390625 44.6875 216.023438 51.761719 220.210938 C 55.257812 222.28125 59.195312 223.316406 63.222656 223.316406 C 67.335938 223.316406 71.546875 222.234375 75.476562 220.078125 L 92.691406 210.417969 C 101.355469 205.648438 106.734375 196.84375 106.734375 187.429688 C 106.734375 178.617188 101.992188 170.757812 94.0625 166.40625 " fill-opacity="1" fill-rule="nonzero"/></g></svg>