<svg width="179" height="47" viewBox="0 0 179 47" fill="none" xmlns="http://www.w3.org/2000/svg">
<path d="M28.004 8.93466V37.7117H20.9866V35.6176C19.6138 37.251 17.5616 38.0654 14.8254 38.0654C12.9082 38.0654 11.1608 37.6186 9.58561 36.7252C8.00808 35.8317 6.76096 34.5613 5.84422 32.9093C4.92516 31.2527 4.4668 29.3401 4.4668 27.1669C4.4668 24.9961 4.92516 23.0882 5.84422 21.4432C6.76096 19.8005 8.00808 18.5394 9.58561 17.6646C11.1608 16.7851 12.9082 16.343 14.8254 16.343C17.3313 16.343 19.2695 17.0666 20.6422 18.5115V8.93466H28.004ZM16.3704 32.202C17.6361 32.202 18.6808 31.7599 19.5068 30.8711C20.3374 29.9776 20.7539 28.7445 20.7539 27.1669C20.7539 25.6173 20.3467 24.4005 19.5347 23.5186C18.7204 22.6391 17.6664 22.197 16.3704 22.197C15.079 22.197 14.018 22.6391 13.1874 23.5186C12.3614 24.4005 11.9496 25.6173 11.9496 27.1669C11.9496 28.7445 12.3614 29.9776 13.1874 30.8711C14.018 31.7599 15.079 32.202 16.3704 32.202Z" fill="white"/>
<path d="M40.7648 38.0654C38.5125 38.0654 36.4789 37.6001 34.6687 36.6694C32.8632 35.734 31.4485 34.4404 30.4248 32.7884C29.4057 31.1318 28.8984 29.2587 28.8984 27.167C28.8984 25.0962 29.4057 23.2348 30.4248 21.5828C31.4485 19.9262 32.8562 18.6395 34.6501 17.7205C36.4487 16.8037 38.4869 16.343 40.7648 16.343C43.0357 16.343 45.0762 16.8037 46.8887 17.7205C48.6989 18.6395 50.1089 19.9216 51.1141 21.5642C52.1239 23.2023 52.6311 25.0706 52.6311 27.167C52.6311 29.2587 52.1239 31.1318 51.1141 32.7884C50.1089 34.4404 48.6989 35.734 46.8887 36.6694C45.0762 37.6001 43.0357 38.0654 40.7648 38.0654ZM40.7648 32.2021C42.0538 32.2021 43.1124 31.76 43.9384 30.8712C44.7691 29.9777 45.1856 28.7445 45.1856 27.167C45.1856 25.6174 44.7691 24.4005 43.9384 23.5187C43.1124 22.6392 42.0538 22.1971 40.7648 22.1971C39.4665 22.1971 38.4055 22.6392 37.5818 23.5187C36.7558 24.4005 36.344 25.6174 36.344 27.167C36.344 28.7445 36.7558 29.9777 37.5818 30.8712C38.4055 31.76 39.4665 32.2021 40.7648 32.2021Z" fill="white"/>
<path d="M65.5759 38.0654C63.2492 38.0654 61.1668 37.6001 59.331 36.6694C57.4998 35.734 56.0735 34.4404 55.0498 32.7884C54.0307 31.1318 53.5234 29.2587 53.5234 27.167C53.5234 25.0706 54.0307 23.2023 55.0498 21.5642C56.0735 19.9216 57.4998 18.6395 59.331 17.7205C61.1668 16.8037 63.2492 16.343 65.5759 16.343C67.9585 16.343 70.0153 16.8549 71.7464 17.8787C73.4775 18.8978 74.706 20.3125 75.432 22.1227L69.7268 25.0264C68.7705 23.1418 67.3745 22.1971 65.5387 22.1971C64.2218 22.1971 63.1305 22.6392 62.2626 23.5187C61.3994 24.4005 60.969 25.6174 60.969 27.167C60.969 28.7445 61.3994 29.9777 62.2626 30.8712C63.1305 31.76 64.2218 32.2021 65.5387 32.2021C67.3745 32.2021 68.7705 31.2597 69.7268 29.3728L75.432 32.2858C74.706 34.0914 73.4775 35.506 71.7464 36.5298C70.0153 37.5535 67.9585 38.0654 65.5759 38.0654Z" fill="white"/>
<path d="M98.5046 16.6873V37.7116H91.4872V35.4593C90.71 36.3156 89.7793 36.9647 88.6951 37.4045C87.6085 37.8442 86.4568 38.0653 85.2422 38.0653C82.5292 38.0653 80.3654 37.2649 78.746 35.6641C77.1312 34.0586 76.3262 31.6505 76.3262 28.4419V16.6873H83.6973V27.2413C83.6973 28.8188 83.9904 29.9682 84.5814 30.6942C85.1771 31.4155 86.0449 31.7738 87.1874 31.7738C88.3461 31.7738 89.2954 31.3689 90.0353 30.5546C90.7729 29.7426 91.1428 28.4954 91.1428 26.8132V16.6873H98.5046Z" fill="white"/>
<mask id="mask0_466_3503" style="mask-type:luminance" maskUnits="userSpaceOnUse" x="99" y="28" width="10" height="11">
<path d="M99.3984 28.684H108.78V38.0654H99.3984V28.684Z" fill="white"/>
</mask>
<g mask="url(#mask0_466_3503)">
<path d="M104.089 28.684C101.499 28.684 99.3984 30.7851 99.3984 33.3747C99.3984 35.9667 101.499 38.0654 104.089 38.0654C106.681 38.0654 108.78 35.9667 108.78 33.3747C108.78 30.7851 106.681 28.684 104.089 28.684ZM106.73 32.6511L103.984 35.3966C103.854 35.5293 103.675 35.6014 103.487 35.6014C103.303 35.6014 103.124 35.5293 102.991 35.3966L101.62 34.0262C101.346 33.7493 101.346 33.3072 101.62 33.0304C101.895 32.7581 102.337 32.7581 102.612 33.0304L103.487 33.9099L105.736 31.6599C106.011 31.3854 106.455 31.3854 106.73 31.6599C107.002 31.9321 107.002 32.3765 106.73 32.6511Z" fill="#39B54A"/>
</g>
<path d="M120.142 28.2186L117.266 31.2806V38.0653H109.672V10.917H117.266V22.2063L127.783 10.917H136.234L125.14 22.9416L136.82 38.0653H127.895L120.142 28.2186Z" fill="white"/>
<path d="M147.878 16.343C151.363 16.343 154.025 17.1411 155.863 18.7349C157.699 20.3241 158.618 22.7602 158.618 26.0409V37.7118H151.75V34.9941C150.693 37.0417 148.627 38.0654 145.551 38.0654C143.918 38.0654 142.508 37.7792 141.317 37.2092C140.13 36.6391 139.234 35.869 138.627 34.9011C138.017 33.9331 137.715 32.8303 137.715 31.5878C137.715 29.5961 138.478 28.0512 140.004 26.9529C141.531 25.8547 143.881 25.3056 147.059 25.3056H151.247C151.117 23.0789 149.63 21.9644 146.789 21.9644C145.784 21.9644 144.763 22.1273 143.727 22.4484C142.689 22.7718 141.812 23.2185 141.093 23.7886L138.608 18.7908C139.767 18.009 141.182 17.4087 142.852 16.9852C144.521 16.5571 146.196 16.343 147.878 16.343ZM147.608 33.4027C148.457 33.4027 149.204 33.1979 149.851 32.7884C150.496 32.3742 150.961 31.7646 151.247 30.9642V29.1401H148.073C145.926 29.1401 144.853 29.8521 144.853 31.2714C144.853 31.9182 145.098 32.4347 145.589 32.8256C146.077 33.2119 146.752 33.4027 147.608 33.4027Z" fill="white"/>
<path d="M166.529 19.5632C167.278 18.6092 168.256 17.8926 169.461 17.4133C170.664 16.9363 172.041 16.6966 173.593 16.6966V23.3325C172.916 23.2534 172.36 23.2115 171.927 23.2115C170.345 23.2115 169.107 23.6396 168.214 24.4958C167.325 25.3474 166.883 26.6504 166.883 28.4047V38.0653H159.512V17.041H166.529V19.5632Z" fill="white"/>
</svg>
